<svg id="Layer_1" data-name="Layer 1" xmlns="http://www.w3.org/2000/svg" viewBox="0 0 900 900"><title>apple-music</title><path d="M803.91,364.62c0,98,.35,195.94-.29,293.9-.12,19.41-1.83,39.35-6.59,58.09-9.9,38.88-34.69,66.1-72.87,79.43-31,10.82-63.21,17.23-95.82,10.79-47.74-9.42-79.7-46-82.33-95.61-2.23-42.09,19.15-82.81,64.76-100.19,30.89-11.78,64.16-17.29,96.39-25.54,4.43-1.14,9-1.75,13.45-2.82,20.4-4.9,29.62-15.54,31.53-36.48.38-4.14.31-8.32.31-12.49q0-140.7,0-281.39a108.22,108.22,0,0,0-.63-15c-1.85-13.07-8-19.17-21.13-17.07-33.28,5.33-66.4,11.71-99.46,18.28-82.09,16.31-164.1,33-246.16,49.46-25,5-30.66,11.64-30.71,37-.28,145.91-.27,291.81-.92,437.72-.23,49.83-17.41,91.66-63.31,116.79-29.95,16.4-63.09,22.27-96.66,20.07-16.43-1.08-34.1-6.24-48.24-14.59-38.37-22.67-53-59.05-47.92-102.25,4.92-42.07,30.26-70.5,69.42-83.76,30.61-10.36,62.81-16.26,94.52-23.13,31.54-6.83,41.27-18,41.27-50.53q0-238.87,0-477.74a162.86,162.86,0,0,1,.93-21.2c3.27-24.88,13.68-35.94,38.36-41Q447.11,64,552.42,42.71,649.14,23.17,745.91,3.82A189.66,189.66,0,0,1,773.11.07C789.78-.8,801,9.2,802.47,25.78c.83,9.11,1.38,18.29,1.38,27.44Q804,208.92,803.91,364.62Z"/></svg>