<svg xmlns="http://www.w3.org/2000/svg" viewBox="0 0 900 900"><title>soundcloud</title><g id="Layer_3" data-name="Layer 3"><path d="M727.52,442.59c27.89-7.84,54.44-11,81.05-3,46.14,14,79.52,43.71,88.56,90.84C912.59,611,864,668.86,789.18,678.8a151,151,0,0,1-19.86.85q-161.46.08-322.93,0c-22.28,0-25.14-2.85-25.14-24.74V282.87c0-18.54,2.43-21.81,20.22-27.56C568.2,214.31,699,291,724.69,421.52,726,427.94,726.45,434.51,727.52,442.59Z"/><path d="M280.84,487.69q0-76.63,0-153.27c0-23.13,12.13-36.69,32.83-37,20.37-.27,34.68,14.86,34.69,37.07q.09,153.27,0,306.54c0,21.42-10.81,35-29.12,37.68a33.61,33.61,0,0,1-36.8-24c-1.4-4.74-1.53-10-1.54-15Q280.75,563.74,280.84,487.69Z"/><path d="M140.44,522.77q0-56.67,0-113.34c0-22.18,13.18-36.25,33.69-36.29,19.72-.05,33.63,13.85,33.71,35.41q.44,116.27,0,232.52c-.07,19.8-16.39,35.64-34.71,35.3s-32.54-15.49-32.65-35.59C140.31,601.44,140.45,562.1,140.44,522.77Z"/><path d="M0,540.33c0-21.83.2-43.67-.07-65.49C-.22,459.91,6,449.35,19.74,443.47c12.4-5.32,32-2.29,40.24,7.67,4.1,5,7.2,12.46,7.28,18.86.61,45.6.56,91.22.22,136.82-.15,21-14.93,36.26-33.65,36C14.2,642.62.17,627.35.06,605.82-.06,584,0,562.16,0,540.33Z"/></g></svg>