<svg xmlns="http://www.w3.org/2000/svg" viewBox="0 0 900 900"><title>spotify</title><g id="Layer_2" data-name="Layer 2"><path d="M900,450.27C899.75,697.36,697,900,450,900,202.49,900-.7,696.44-.06,449.13S203.58-.43,450.52,0C697.65.42,900.16,203.31,900,450.27ZM387.54,235.77c-25.34,1.15-50.73,1.64-76,3.58-47.15,3.61-93.81,10.72-139.28,24.09-24.36,7.17-37.47,30.34-31.44,53.81,5.32,20.73,29.93,34.16,53.39,28.18,72-18.34,145.19-25.18,219.35-22.06,105.58,4.43,207.9,21.82,301.59,74.69a51.41,51.41,0,0,0,26.7,6.16c18.7-1,32.27-15.37,36-34.69,3.91-20.51-2.4-38.22-20.39-46.61-36.69-17.13-73.29-35.24-111.57-48C562.26,247.06,475.57,236.52,387.54,235.77ZM170.74,449.9c-.24,25.35,21.25,40.75,48,33.17a536.26,536.26,0,0,1,131.49-19.75c110.24-3.16,214.84,17.9,311.56,72.73,18.87,10.7,35.67,7.85,47.6-7.81,12.15-16,10.83-34.62-5.95-48.85-10.53-8.93-23.21-15.73-35.74-21.84q-111.6-54.43-235.5-64.64c-79.81-6.74-158.14,0-235.07,22.33A35.88,35.88,0,0,0,170.74,449.9Zm237.15,92.65c-63.76-2.47-132.39,5.09-196.81,19.51-18.84,4.21-29.11,18.11-25.31,34.23,3.42,14.47,18.56,21.87,36.54,18.87,34.6-5.77,69.13-12.65,104-16.15,99.08-10,193.84,4.45,281.5,54.53,5.05,2.89,10.25,5.86,15.77,7.51,15.1,4.51,28.38-2.25,34.18-16.68,5.21-12.94.32-23-13.83-31.57C566.83,566.23,482.88,544.22,407.89,542.55Z"/></g></svg>